<svg xmlns="http://www.w3.org/2000/svg" xmlns:xlink="http://www.w3.org/1999/xlink" width="500" zoomAndPan="magnify" viewBox="0 0 375 374.999991" height="500" preserveAspectRatio="xMidYMid meet" version="1.0"><defs><g/><clipPath id="1d51d2f1a1"><path d="M 59.773438 52.648438 L 315.523438 52.648438 L 315.523438 273.828125 L 59.773438 273.828125 Z M 59.773438 52.648438 " clip-rule="nonzero"/></clipPath></defs><g clip-path="url(#1d51d2f1a1)"><path fill="#9d1a80" d="M 153.296875 133.617188 L 165.820312 111.925781 L 176.640625 93.175781 L 153.203125 52.578125 L 59.773438 52.578125 L 151.613281 211.644531 L 177.503906 166.792969 L 232.582031 71.40625 L 282.660156 71.40625 L 256.386719 116.90625 L 272.640625 126.316406 L 315.21875 52.578125 L 221.769531 52.578125 L 170.199219 141.902344 L 170.191406 141.898438 L 151.613281 174.082031 L 92.324219 71.40625 L 142.425781 71.40625 L 165.820312 111.921875 L 154.984375 93.152344 L 142.453125 114.839844 Z M 244.878906 136.835938 L 187.480469 236.25 L 173.285156 211.664062 L 162.464844 230.40625 L 187.503906 273.777344 L 261.132812 146.25 Z M 244.878906 136.835938 " fill-opacity="1" fill-rule="nonzero"/></g><g fill="#1c487a" fill-opacity="1"><g transform="translate(114.21623, 312.372227)"><g><path d="M 9.15625 0 L 3.703125 -28.765625 L 9.78125 -28.765625 L 13.71875 -6.125 L 27.203125 -28.765625 L 33.484375 -28.765625 L 15.9375 0 Z M 9.15625 0 "/></g></g></g><g fill="#1c487a" fill-opacity="1"><g transform="translate(148.656839, 312.372227)"><g><path d="M 0.28125 0 L 6.40625 -28.765625 L 12.25 -28.765625 L 6.125 0 Z M 0.28125 0 "/></g></g></g><g fill="#1c487a" fill-opacity="1"><g transform="translate(164.521296, 312.372227)"><g><path d="M -2.421875 0 L 15.15625 -28.765625 L 21.90625 -28.765625 L 27.375 0 L 21.375 0 L 20.046875 -7.5625 L 8.390625 -7.5625 L 3.9375 0 Z M 11.171875 -12.328125 L 19.234375 -12.328125 L 17.421875 -22.9375 Z M 11.171875 -12.328125 "/></g></g></g><g fill="#1c487a" fill-opacity="1"><g transform="translate(198.961905, 312.372227)"><g><path d="M 0.28125 0 L 6.40625 -28.765625 L 19.234375 -28.765625 C 21.859375 -28.765625 23.984375 -28.023438 25.609375 -26.546875 C 27.242188 -25.066406 28.0625 -23.132812 28.0625 -20.75 C 28.0625 -18.53125 27.351562 -16.582031 25.9375 -14.90625 C 24.53125 -13.238281 22.734375 -12.101562 20.546875 -11.5 L 24.859375 0 L 18.703125 0 L 14.875 -11.09375 L 8.46875 -11.09375 L 6.125 0 Z M 18.203125 -23.625 L 11.140625 -23.625 L 9.53125 -15.9375 L 17.265625 -15.9375 C 18.660156 -15.9375 19.816406 -16.34375 20.734375 -17.15625 C 21.648438 -17.96875 22.109375 -18.988281 22.109375 -20.21875 C 22.109375 -21.257812 21.75 -22.085938 21.03125 -22.703125 C 20.320312 -23.316406 19.378906 -23.625 18.203125 -23.625 Z M 18.203125 -23.625 "/></g></g></g><g fill="#1c487a" fill-opacity="1"><g transform="translate(231.265433, 312.372227)"><g><path d="M -2.421875 0 L 15.15625 -28.765625 L 21.90625 -28.765625 L 27.375 0 L 21.375 0 L 20.046875 -7.5625 L 8.390625 -7.5625 L 3.9375 0 Z M 11.171875 -12.328125 L 19.234375 -12.328125 L 17.421875 -22.9375 Z M 11.171875 -12.328125 "/></g></g></g></svg>